<?xml version="1.0" encoding="utf-8"?>
<!-- Generator: Adobe Illustrator 16.0.0, SVG Export Plug-In . SVG Version: 6.00 Build 0)  -->
<!DOCTYPE svg PUBLIC "-//W3C//DTD SVG 1.1//EN" "http://www.w3.org/Graphics/SVG/1.1/DTD/svg11.dtd">
<svg version="1.1" id="Capa_1" xmlns="http://www.w3.org/2000/svg" xmlns:xlink="http://www.w3.org/1999/xlink" x="0px" y="0px"
	 width="200px" height="200px" viewBox="0 0 200 200" enable-background="new 0 0 200 200" xml:space="preserve">
<g>
	<circle fill="#4E8076" cx="99.953" cy="99.576" r="99.203"/>
	<g>
		<path fill="#FFFFFF" d="M167.423,69.048l11.071-15.81H99.979h-0.052H21.413l11.07,15.81c-6.992,7.13-11.309,16.893-11.309,27.668
			c0,21.828,17.695,39.524,39.523,39.524c6.5,0,12.629-1.579,18.039-4.361l21.191,28.787v0.071l0.026-0.035l0.026,0.035v-0.071
			l21.19-28.787c5.411,2.782,11.54,4.361,18.04,4.361c21.828,0,39.523-17.696,39.523-39.524
			C178.733,85.941,174.417,76.178,167.423,69.048z"/>
		<g>
			<circle fill="#201813" cx="60.679" cy="96.552" r="10.437"/>
			<circle fill="#201813" cx="139.228" cy="96.552" r="10.437"/>
		</g>
	</g>
</g>
</svg>
