<?xml version="1.0" encoding="utf-8"?>
<!-- Generator: Adobe Illustrator 16.0.0, SVG Export Plug-In . SVG Version: 6.00 Build 0)  -->
<!DOCTYPE svg PUBLIC "-//W3C//DTD SVG 1.1//EN" "http://www.w3.org/Graphics/SVG/1.1/DTD/svg11.dtd">
<svg version="1.1" id="Capa_1" xmlns="http://www.w3.org/2000/svg" xmlns:xlink="http://www.w3.org/1999/xlink" x="0px" y="0px"
	 width="200px" height="200px" viewBox="0 0 200 200" enable-background="new 0 0 200 200" xml:space="preserve">
<g>
	<path fill="#aaa6a0" d="M99.954,0.373C45.165,0.373,0.75,44.787,0.75,99.576s44.415,99.203,99.203,99.203
		s99.203-44.414,99.203-99.203S154.742,0.373,99.954,0.373z M139.21,136.24c-6.5,0-12.629-1.579-18.04-4.361l-21.19,28.787v0.071
		l-0.026-0.035l-0.026,0.035v-0.071l-21.191-28.787c-5.41,2.782-11.539,4.361-18.039,4.361c-21.828,0-39.523-17.696-39.523-39.524
		c0-10.775,4.317-20.538,11.309-27.668l-11.07-15.81h78.514h0.052h78.515l-11.071,15.81c6.994,7.13,11.311,16.893,11.311,27.668
		C178.733,118.544,161.038,136.24,139.21,136.24z"/>
	<circle fill="#aaa6a0" cx="60.68" cy="96.551" r="10.436"/>
	<circle fill="#aaa6a0" cx="139.229" cy="96.551" r="10.436"/>
</g>
</svg>
